<?xml version="1.0" encoding="UTF-8"?>
<svg version="1.1" xmlns="http://www.w3.org/2000/svg" width="393" height="407">
<path d="M0 0 C129.69 0 259.38 0 393 0 C393 134.31 393 268.62 393 407 C263.31 407 133.62 407 0 407 C0 272.69 0 138.38 0 0 Z " fill="#373232" transform="translate(0,0)"/>
<path d="M0 0 C0.74545578 -0.01248276 1.49091156 -0.02496552 2.25895691 -0.03782654 C22.08470499 -0.30538934 39.9583518 -0.04882214 57.59765625 10.2734375 C58.314375 10.63953125 59.03109375 11.005625 59.76953125 11.3828125 C77.73925243 20.68628517 98.0182468 38.80491994 104.34375 58.609375 C104.82048098 60.48342092 105.21842015 62.37725699 105.59765625 64.2734375 C106.25765625 64.2734375 106.91765625 64.2734375 107.59765625 64.2734375 C107.59765625 78.1334375 107.59765625 91.9934375 107.59765625 106.2734375 C105.06110915 103.7368904 103.5395529 101.6902355 101.66015625 98.7109375 C97.28031601 92.37218137 91.65292521 87.90622351 85.59765625 83.2734375 C84.74816406 82.58765625 83.89867187 81.901875 83.0234375 81.1953125 C77.58955867 77.03021375 72.67845783 75.13173896 65.96875 73.78125 C63.59765625 73.2734375 63.59765625 73.2734375 62.59765625 72.2734375 C44.76524233 70.15318803 28.55313934 73.71354287 14.17919922 84.51123047 C6.93294648 90.03963018 6.93294648 90.03963018 1.59765625 97.2734375 C0.93765625 97.2734375 0.27765625 97.2734375 -0.40234375 97.2734375 C-0.67433594 97.82515625 -0.94632812 98.376875 -1.2265625 98.9453125 C-2.03786404 100.55174345 -2.87559792 102.14500236 -3.734375 103.7265625 C-8.09776212 111.96979516 -10.87673344 120.33821059 -13.40234375 129.2734375 C-13.58265137 129.91071777 -13.76295898 130.54799805 -13.94873047 131.20458984 C-16.95752215 144.92714137 -14.10848814 159.99655694 -10.40234375 173.2734375 C-10.1290625 174.32789063 -9.85578125 175.38234375 -9.57421875 176.46875 C-8.381857 180.8196019 -7.15429229 183.68364324 -4.40234375 187.2734375 C-3.48234671 188.94788638 -2.58823084 190.63671162 -1.71484375 192.3359375 C2.92209046 200.94410744 8.69197936 208.56890494 15.34765625 215.71484375 C16.59765625 217.2734375 16.59765625 217.2734375 16.59765625 219.2734375 C11.97765625 218.2834375 7.35765625 217.2934375 2.59765625 216.2734375 C2.59765625 215.6134375 2.59765625 214.9534375 2.59765625 214.2734375 C-2.68234375 212.9534375 -7.96234375 211.6334375 -13.40234375 210.2734375 C-13.40234375 209.6134375 -13.40234375 208.9534375 -13.40234375 208.2734375 C-13.99660156 208.12648438 -14.59085937 207.97953125 -15.203125 207.828125 C-22.21076668 205.93181139 -28.1576521 202.94189704 -34.40234375 199.2734375 C-34.40234375 198.6134375 -34.40234375 197.9534375 -34.40234375 197.2734375 C-35.13710937 197.01046875 -35.871875 196.7475 -36.62890625 196.4765625 C-41.13222387 194.52301063 -44.62709119 191.36523916 -48.40234375 188.2734375 C-49.33820312 187.52513672 -49.33820312 187.52513672 -50.29296875 186.76171875 C-58.80538797 179.76389665 -65.02919388 170.93780625 -71.24755859 161.93652344 C-72.37860849 160.30762029 -73.54061064 158.70034879 -74.703125 157.09375 C-76.40234375 154.2734375 -76.40234375 154.2734375 -76.40234375 150.2734375 C-77.06234375 150.2734375 -77.72234375 150.2734375 -78.40234375 150.2734375 C-80.10501214 145.61901203 -81.76936729 140.95265733 -83.40234375 136.2734375 C-83.78261719 135.18546875 -84.16289063 134.0975 -84.5546875 132.9765625 C-88.56006338 120.82440323 -89.56800905 108.97785785 -89.65234375 96.2734375 C-89.66168945 95.29391113 -89.67103516 94.31438477 -89.68066406 93.30517578 C-89.65218545 86.92487028 -88.78875384 81.65957665 -86.3515625 75.70703125 C-85.27090323 72.93645212 -84.76377458 70.25742845 -84.21484375 67.3359375 C-82.04586425 57.68507415 -77.88884644 48.02919815 -70.859375 40.8984375 C-69.22674461 39.16235527 -69.22674461 39.16235527 -67.578125 36.45703125 C-65.26665458 33.07489769 -62.6770245 30.20522328 -59.77734375 27.3359375 C-59.25390381 26.81451172 -58.73046387 26.29308594 -58.19116211 25.75585938 C-54.30075934 21.96379129 -50.21966497 18.738499 -45.65625 15.7734375 C-43.31012414 14.27143421 -43.31012414 14.27143421 -40.98046875 12.24609375 C-38.25904888 10.16379522 -35.7674952 8.97283578 -32.58984375 7.7109375 C-31.53539062 7.29199219 -30.4809375 6.87304688 -29.39453125 6.44140625 C-28.40710938 6.05597656 -27.4196875 5.67054688 -26.40234375 5.2734375 C-25.29246094 4.80357422 -25.29246094 4.80357422 -24.16015625 4.32421875 C-19.87100045 2.55860241 -15.91248102 1.82295974 -11.28515625 1.484375 C-7.45571961 1.05535098 -4.03411125 0.06049566 0 0 Z " fill="#F78D82" transform="translate(108.40234375,145.7265625)"/>
<path d="M0 0 C0.99 0 1.98 0 3 0 C3.14695312 0.94359375 3.29390625 1.8871875 3.4453125 2.859375 C5.13400294 12.52567199 7.60205845 21.24806255 13.6875 29.20703125 C15 31 15 31 15 33 C15.66 33 16.32 33 17 33 C18.57097932 34.92747078 20.04156159 36.8650138 21.5 38.875 C27.56794496 46.97736784 34.27736295 53.91911626 42.25 60.1875 C47.0503043 64.02774344 51.29357684 68.22048752 55.5 72.6875 C56.39960449 73.6324231 56.39960449 73.6324231 57.31738281 74.59643555 C61.92555466 79.57811875 64.57801846 84.66558675 67 91 C67.66 91 68.32 91 69 91 C69.98482876 93.87317015 70.9629993 96.74832745 71.9375 99.625 C72.21529297 100.43324219 72.49308594 101.24148437 72.77929688 102.07421875 C75.42826294 109.92537118 76.1816274 116.99312641 76.1875 125.25 C76.19974609 126.14074219 76.21199219 127.03148437 76.22460938 127.94921875 C76.23818858 134.18659957 75.44414063 139.93542757 74 146 C73.34 146 72.68 146 72 146 C71.67128906 144.54980469 71.67128906 144.54980469 71.3359375 143.0703125 C68.04858653 129.27232314 62.48678657 120.72564883 52 111 C51.44828125 110.43410156 50.8965625 109.86820312 50.328125 109.28515625 C44.10199115 103.2355365 34.3800857 98.930341 26 97 C26.00184359 97.68892428 26.00368717 98.37784857 26.00558662 99.08764935 C26.04987645 115.89943616 26.08291024 132.71120434 26.10362434 149.523036 C26.11390939 157.65331819 26.12791631 165.78356128 26.15087891 173.91381836 C26.17089809 181.00533508 26.18373655 188.09682347 26.18817699 195.18836766 C26.19077002 198.93856874 26.19680603 202.6886888 26.21146011 206.43886375 C26.22517927 209.97894019 26.22919416 213.51890333 26.22621536 217.05900383 C26.2270157 218.95661755 26.23770149 220.85421934 26.24884033 222.75180054 C26.20834129 239.871545 23.55345107 258.06072383 11.18359375 270.8828125 C3.89847046 277.44678217 -4.11737766 282.87342742 -13 287 C-13.93714844 287.49628906 -14.87429688 287.99257813 -15.83984375 288.50390625 C-29.75986333 295.09397732 -46.50991403 294.62335529 -60.94921875 290.265625 C-64.29923071 288.87586332 -67.02871674 287.06697966 -70 285 C-71.64619113 284.28426473 -73.30728055 283.5974304 -75 283 C-75 282.34 -75 281.68 -75 281 C-75.5775 280.76539063 -76.155 280.53078125 -76.75 280.2890625 C-84.49899234 275.84953564 -89.30986819 265.99136049 -92.0859375 257.79296875 C-93.10332907 253.5712285 -93.29633314 249.81670389 -93.25 245.5 C-93.25773438 244.77941406 -93.26546875 244.05882812 -93.2734375 243.31640625 C-93.2523105 237.47479111 -91.8447327 232.5341981 -90 227 C-89.34 227 -88.68 227 -88 227 C-87.896875 226.278125 -87.79375 225.55625 -87.6875 224.8125 C-86.93206053 221.72206579 -85.84468685 219.58256159 -84 217 C-83.34 217 -82.68 217 -82 217 C-82 216.34 -82 215.68 -82 215 C-81.34 215 -80.68 215 -80 215 C-79.690625 213.88625 -79.690625 213.88625 -79.375 212.75 C-77.5874541 209.17490821 -75.36338359 208.08529783 -72 206 C-70.64691687 204.68671343 -69.31129922 203.35500919 -68 202 C-64.99824383 199.48197054 -62.12216787 198.12093308 -58.4375 196.8125 C-57.48746094 196.46832031 -56.53742188 196.12414062 -55.55859375 195.76953125 C-53 195 -53 195 -50 195 C-50 194.34 -50 193.68 -50 193 C-46.09091048 191.17137956 -43.01124525 190.75325913 -38.7109375 190.76953125 C-37.52242187 190.77146484 -36.33390625 190.77339844 -35.109375 190.77539062 C-33.26085937 190.79375977 -33.26085937 190.79375977 -31.375 190.8125 C-30.13492188 190.81314453 -28.89484375 190.81378906 -27.6171875 190.81445312 C-18.42170694 190.85943102 -18.42170694 190.85943102 -15 192 C-15 192.66 -15 193.32 -15 194 C-14.41992188 194.10957031 -13.83984375 194.21914063 -13.2421875 194.33203125 C-12.46101563 194.49058594 -11.67984375 194.64914062 -10.875 194.8125 C-9.72644531 195.03873047 -9.72644531 195.03873047 -8.5546875 195.26953125 C-6 196 -6 196 0 199 C0 133.33 0 67.66 0 0 Z " fill="#C7BBE9" transform="translate(289,66)"/>
<path d="M0 0 C1.82421875 0.1953125 1.82421875 0.1953125 4 1 C5.45703125 3.1171875 5.45703125 3.1171875 6.8125 5.875 C8.86521786 9.88219482 11.02134257 13.67847648 13.5 17.4375 C16.60051219 22.21859956 19.17699947 27.13857756 21.640625 32.2734375 C22.97241173 35.04417647 22.97241173 35.04417647 24.671875 37.7265625 C26 40 26 40 26 42 C26.66 42 27.32 42 28 42 C28.4021875 42.73089844 28.4021875 42.73089844 28.8125 43.4765625 C33.15851941 51.33942656 37.5552559 59.18819711 42.13623047 66.91699219 C45 71.78779421 45 71.78779421 45 74 C45.66 74 46.32 74 47 74 C47.4125 74.78761719 47.825 75.57523437 48.25 76.38671875 C52.20890138 83.853843 56.43748584 91.07252564 60.91455078 98.24511719 C62.9134795 101.47685349 64.8614565 104.73920974 66.8125 108 C67.18552246 108.62310059 67.55854492 109.24620117 67.94287109 109.88818359 C68.96231608 111.5918819 69.98117547 113.29593058 71 115 C71.99967401 116.66686221 72.99953592 118.33361187 74 120 C70.51423718 119.38965243 67.4128077 118.48391539 64.13671875 117.15234375 C62.80737305 116.61577148 62.80737305 116.61577148 61.45117188 116.06835938 C60.53916016 115.69517578 59.62714844 115.32199219 58.6875 114.9375 C57.75615234 114.56044922 56.82480469 114.18339844 55.86523438 113.79492188 C53.57521083 112.86716875 51.28690004 111.93541999 49 111 C49 110.34 49 109.68 49 109 C48.154375 109.061875 47.30875 109.12375 46.4375 109.1875 C42.26380157 108.95984372 39.74567053 107.79792186 36 106 C36 105.34 36 104.68 36 104 C34.6696875 103.814375 34.6696875 103.814375 33.3125 103.625 C30 103 30 103 25 101 C25 116.18 25 131.36 25 147 C21.42233354 145.80744451 20.7958173 144.68833569 18.625 141.6875 C16.02809791 138.2139367 13.47064685 135.62927791 10 133 C10 132.34 10 131.68 10 131 C9.14341797 130.61521484 9.14341797 130.61521484 8.26953125 130.22265625 C5.76593197 128.87390139 3.8486111 127.28508203 1.6875 125.4375 C-2.52816717 122.01888659 -6.86637164 119.05621588 -11.5 116.25 C-12.09208252 115.88575928 -12.68416504 115.52151855 -13.29418945 115.14624023 C-21.56397516 110.23777293 -30.53105512 107.38072994 -39.75 104.8125 C-40.65621094 104.55275391 -41.56242188 104.29300781 -42.49609375 104.02539062 C-46.97854955 102.75917866 -51.3752905 101.63551472 -56 101 C-55.02989228 94.3170357 -53.15342328 90.43222934 -49.1328125 85.07421875 C-45.92803764 80.45488209 -43.31584312 75.53525921 -40.640625 70.59594727 C-38.26083426 66.21588483 -35.75891239 61.96372809 -33.08886719 57.75439453 C-31.82897605 55.72444438 -30.72491091 53.65166708 -29.6875 51.5 C-29.130625 50.345 -28.57375 49.19 -28 48 C-27.34 48 -26.68 48 -26 48 C-25.67 46.35 -25.34 44.7 -25 43 C-24.34 43 -23.68 43 -23 43 C-22.9175 42.113125 -22.835 41.22625 -22.75 40.3125 C-21.87113452 36.43084415 -20.51973583 35.06454357 -18 32 C-15.47481756 27.67296104 -13.05132659 23.27008668 -10.9453125 18.72265625 C-10 17 -10 17 -8 16 C-7.27615681 14.02588221 -6.55508929 12.0506118 -5.859375 10.06640625 C-4.70725809 7.29608876 -2.94124797 5.2647893 -1 3 C-0.67 2.01 -0.34 1.02 0 0 Z " fill="#A8DC83" transform="translate(190,25)"/>
<path d="M0 0 C2.31 0.33 4.62 0.66 7 1 C7 1.99 7 2.98 7 4 C5.02 4.99 5.02 4.99 3 6 C3.00092179 6.59854546 3.00184359 7.19709091 3.00279331 7.81377411 C3.02497893 22.44852051 3.04147468 37.0832659 3.05181217 51.71802521 C3.05694552 58.79558419 3.06393104 65.87313187 3.07543945 72.95068359 C3.08547756 79.12700995 3.09187491 85.30332813 3.09408849 91.47966242 C3.09538027 94.7431213 3.09891066 98.00655161 3.10573006 101.27000427 C3.18065373 138.63869254 3.18065373 138.63869254 1 143 C0.63858045 145.32914823 0.30300475 147.66253478 0 150 C-0.66 150 -1.32 150 -2 150 C-2.33 150.99 -2.66 151.98 -3 153 C-2.86042877 152.13721939 -2.72085754 151.27443878 -2.57705688 150.38551331 C-0.54314516 135.91147404 -0.6486764 121.39936153 -0.59528303 106.81394649 C-0.57945742 103.04767857 -0.55273131 99.2814868 -0.5272522 95.51527405 C-0.48080327 88.41142626 -0.4438973 81.30756358 -0.41057932 74.20364338 C-0.37211567 66.10420213 -0.32277064 58.00483799 -0.27259517 49.90546215 C-0.1697805 33.2703638 -0.08035907 16.63522232 0 0 Z " fill="#383846" transform="translate(315,163)"/>
<path d="M0 0 C0.33 0 0.66 0 1 0 C1 65.67 1 131.34 1 199 C-4 197.33333333 -9 195.66666667 -14 194 C-14 193.34 -14 192.68 -14 192 C-18.18090413 191.97519317 -22.36176872 191.95708951 -26.54272461 191.94506836 C-27.96363064 191.94005435 -29.38453156 191.93324148 -30.80541992 191.92456055 C-32.85336576 191.91236612 -34.9012431 191.90674228 -36.94921875 191.90234375 C-38.17987061 191.89710693 -39.41052246 191.89187012 -40.6784668 191.88647461 C-43.59219619 191.98606183 -46.17307326 192.32200678 -49 193 C-49 193.66 -49 194.32 -49 195 C-50.6210103 195.69685498 -52.24696066 196.38222861 -53.875 197.0625 C-54.77992188 197.44535156 -55.68484375 197.82820312 -56.6171875 198.22265625 C-59 199 -59 199 -61 198 C-51.61880572 191.74587048 -45.42953451 188.00436699 -34 190 C-34 189.34 -34 188.68 -34 188 C-26.60575038 187.75352501 -17.75116339 187.6244183 -11 191 C-11 191.66 -11 192.32 -11 193 C-9.02 193 -7.04 193 -5 193 C-4.67 193.99 -4.34 194.98 -4 196 C-2.36454292 194.98041883 -2.36454292 194.98041883 -1 193 C-0.69976442 190.35995536 -0.58402015 187.95373819 -0.60127258 185.31221008 C-0.59462576 184.5215212 -0.58797893 183.73083232 -0.58113068 182.91618317 C-0.56243037 180.25820145 -0.56511065 177.6006671 -0.56762695 174.94262695 C-0.55861408 173.04072429 -0.54828803 171.13882746 -0.53674316 169.23693848 C-0.50909132 164.06577824 -0.49987756 158.89472797 -0.49388909 153.72350335 C-0.48452668 148.32223135 -0.45832508 142.92104219 -0.43388367 137.51982117 C-0.39015616 127.28826449 -0.36164762 117.05672383 -0.33856028 106.82510203 C-0.31154208 95.17828998 -0.26762853 83.53156101 -0.22227156 71.88480818 C-0.12933576 47.92325045 -0.05769598 23.96166666 0 0 Z " fill="#544D67" transform="translate(288,66)"/>
<path d="M0 0 C0 0.99 0 1.98 0 3 C-1.01707031 3.52722656 -2.03414062 4.05445313 -3.08203125 4.59765625 C-7.24594383 6.97987958 -10.37673481 10.00105927 -13.6875 13.4375 C-14.24244141 13.99759766 -14.79738281 14.55769531 -15.36914062 15.13476562 C-26.05401955 26.02292406 -30.00595219 37.60606618 -34 52 C-34.33 52.99 -34.66 53.98 -35 55 C-35.00430735 57.11652196 -34.94256334 59.23343779 -34.84375 61.34765625 C-34.79089844 62.59224609 -34.73804687 63.83683594 -34.68359375 65.11914062 C-34.62300781 66.42044922 -34.56242187 67.72175781 -34.5 69.0625 C-34.38051574 71.63649593 -34.26568717 74.21071359 -34.15625 76.78515625 C-34.10275391 77.92863525 -34.04925781 79.07211426 -33.99414062 80.25024414 C-34 83 -34 83 -35 85 C-34.34 85 -33.68 85 -33 85 C-31.71682108 88.84953676 -31.93356363 91.94738135 -32 96 C-31.34 96 -30.68 96 -30 96 C-29.67 98.97 -29.34 101.94 -29 105 C-31 104 -31 104 -32.21875 100.5703125 C-32.65655882 99.09167515 -33.08294582 97.6096248 -33.5 96.125 C-33.72067139 95.34342529 -33.94134277 94.56185059 -34.16870117 93.7565918 C-34.79277442 91.50783623 -35.39924629 89.25507991 -36 87 C-36.38091797 85.61361328 -36.38091797 85.61361328 -36.76953125 84.19921875 C-40.0551751 69.75656842 -39.21435506 53.79171436 -34 40 C-33.61457031 38.87078125 -33.22914062 37.7415625 -32.83203125 36.578125 C-30.45438265 29.89916389 -27.74086446 23.38039457 -23 18 C-22.34 18 -21.68 18 -21 18 C-20.731875 17.40832031 -20.46375 16.81664062 -20.1875 16.20703125 C-16.98881093 10.26209927 -6.96433127 0 0 0 Z " fill="#98514B" transform="translate(131,225)"/>
<path d="M0 0 C2.3431213 0.25561323 4.67843403 0.59270772 7 1 C7.33 1.66 7.66 2.32 8 3 C5.69 2.34 3.38 1.68 1 1 C1.00092179 1.74967954 1.00184359 2.49935907 1.00279331 3.27175617 C1.02486123 21.4987255 1.04141776 39.72569217 1.05181217 57.952672 C1.05697221 66.76703686 1.06400938 75.58139281 1.07543945 84.39575195 C1.08539518 92.07680905 1.09185555 99.75785969 1.09408849 107.43892306 C1.09539408 111.50735853 1.09847041 115.57577553 1.10573006 119.64420509 C1.11250426 123.47149902 1.11461409 127.29876685 1.11310768 131.12606621 C1.11338338 132.53257006 1.11538021 133.93907475 1.11920547 135.34557343 C1.12416447 137.26254651 1.12239245 139.17953353 1.12025452 141.09651184 C1.12117631 142.17040067 1.1220981 143.24428949 1.12304783 144.35072041 C1 147 1 147 0 150 C-0.66 150 -1.32 150 -2 150 C-2.33 150.99 -2.66 151.98 -3 153 C-2.86042877 152.13721939 -2.72085754 151.27443878 -2.57705688 150.38551331 C-0.54314516 135.91147404 -0.6486764 121.39936153 -0.59528303 106.81394649 C-0.57945742 103.04767857 -0.55273131 99.2814868 -0.5272522 95.51527405 C-0.48080327 88.41142626 -0.4438973 81.30756358 -0.41057932 74.20364338 C-0.37211567 66.10420213 -0.32277064 58.00483799 -0.27259517 49.90546215 C-0.1697805 33.2703638 -0.08035907 16.63522232 0 0 Z " fill="#6C6589" transform="translate(315,163)"/>
<path d="M0 0 C0.33 0 0.66 0 1 0 C1 6.93 1 13.86 1 21 C-6.5 18.5 -6.5 18.5 -14 16 C-14 15.34 -14 14.68 -14 14 C-18.18090413 13.97519317 -22.36176872 13.95708951 -26.54272461 13.94506836 C-27.96363064 13.94005435 -29.38453156 13.93324148 -30.80541992 13.92456055 C-32.85336576 13.91236612 -34.9012431 13.90674228 -36.94921875 13.90234375 C-38.17987061 13.89710693 -39.41052246 13.89187012 -40.6784668 13.88647461 C-43.59219619 13.98606183 -46.17307326 14.32200678 -49 15 C-49 15.66 -49 16.32 -49 17 C-50.6210103 17.69685498 -52.24696066 18.38222861 -53.875 19.0625 C-54.77992188 19.44535156 -55.68484375 19.82820313 -56.6171875 20.22265625 C-59 21 -59 21 -61 20 C-51.61880572 13.74587048 -45.42953451 10.00436699 -34 12 C-34 11.34 -34 10.68 -34 10 C-26.60575038 9.75352501 -17.75116339 9.6244183 -11 13 C-11 13.66 -11 14.32 -11 15 C-9.02 15 -7.04 15 -5 15 C-4.505 16.485 -4.505 16.485 -4 18 C-2.38228865 16.97437965 -2.38228865 16.97437965 -1 15 C-0.62355152 12.37060795 -0.39866913 9.94927528 -0.3125 7.3125 C-0.27833984 6.61060547 -0.24417969 5.90871094 -0.20898438 5.18554688 C-0.12670053 3.45758613 -0.0616676 1.72881928 0 0 Z " fill="#675C7E" transform="translate(288,244)"/>
<path d="M0 0 C3.86428195 0.77285639 7.30256981 1.71019877 11 3 C8.953125 3.51171875 6.90625 4.0234375 4.859375 4.53515625 C3.93898437 4.76525391 3.93898437 4.76525391 3 5 C3.00523682 6.1552417 3.01047363 7.3104834 3.01586914 8.50073242 C3.0340015 12.79646018 3.04546212 17.09218458 3.05493164 21.38793945 C3.05995303 23.24536712 3.06677141 25.10279085 3.07543945 26.96020508 C3.08760117 29.63363621 3.09325033 32.30701496 3.09765625 34.98046875 C3.10281754 35.80773972 3.10797882 36.63501068 3.11329651 37.48735046 C3.1136812 41.4622534 2.98980119 45.11956833 2 49 C0.68 48.34 -0.64 47.68 -2 47 C-1.01 46.505 -1.01 46.505 0 46 C0 30.82 0 15.64 0 0 Z " fill="#4A5333" transform="translate(215,126)"/>
<path d="M0 0 C0.86286621 -0.00604248 1.72573242 -0.01208496 2.61474609 -0.01831055 C8.56129437 0.0978285 13.54451142 1.32447669 19.0625 3.5 C20.073125 3.891875 21.08375 4.28375 22.125 4.6875 C23.0840625 5.0896875 23.0840625 5.0896875 24.0625 5.5 C21.51997113 6.77126443 20.12220045 6.44002702 17.3125 6.125 C16.47203125 6.03476563 15.6315625 5.94453125 14.765625 5.8515625 C12.89883012 5.60877126 11.0386785 5.31081559 9.1875 4.96875 C0.36905305 3.64598296 -10.17453276 3.54447468 -18.9375 5.5 C-19.5975 6.16 -20.2575 6.82 -20.9375 7.5 C-23.1015625 7.9140625 -23.1015625 7.9140625 -25.5625 8.125 C-26.37976563 8.19976562 -27.19703125 8.27453125 -28.0390625 8.3515625 C-28.66554687 8.40054688 -29.29203125 8.44953125 -29.9375 8.5 C-23.59177087 0.60257799 -9.25632146 0.02878721 0 0 Z " fill="#844743" transform="translate(160.9375,216.5)"/>
<path d="M0 0 C0.33 0.99 0.66 1.98 1 3 C0.67 3.66 0.34 4.32 0 5 C1.299375 5.061875 2.59875 5.12375 3.9375 5.1875 C19.37101784 6.74179754 35.56477175 12.86199136 48 22 C45 23 45 23 42.8125 22.0625 C42.214375 21.711875 41.61625 21.36125 41 21 C41 20.34 41 19.68 41 19 C40.154375 18.896875 39.30875 18.79375 38.4375 18.6875 C35.33979162 18.06795832 32.79175216 17.12448435 29.92578125 15.828125 C24.77532955 13.6133263 19.50208921 12.03708444 14 11 C9 10 4 9 -1 8 C-1.625 5.6875 -1.625 5.6875 -2 3 C-1.34 2.01 -0.68 1.02 0 0 Z " fill="#6D6F41" transform="translate(134,121)"/>
<path d="M0 0 C1.34830666 0.00146149 2.69661444 0.00211626 4.04492188 0.00195312 C14.71660697 0.05019279 14.71660697 0.05019279 19.5625 1.1875 C19.5625 1.8475 19.5625 2.5075 19.5625 3.1875 C20.5525 2.8575 21.5425 2.5275 22.5625 2.1875 C23.5525 2.5175 24.5425 2.8475 25.5625 3.1875 C25.5625 3.8475 25.5625 4.5075 25.5625 5.1875 C26.573125 5.31125 27.58375 5.435 28.625 5.5625 C32.44187612 6.16835335 35.87750112 7.05943912 39.5625 8.1875 C39.5625 8.8475 39.5625 9.5075 39.5625 10.1875 C41.2125 10.5175 42.8625 10.8475 44.5625 11.1875 C44.5625 11.8475 44.5625 12.5075 44.5625 13.1875 C41.25250763 12.48373994 38.39223779 11.26432305 35.3125 9.875 C21.41250229 4.09118925 8.79678992 2.5975571 -6.0625 2.875 C-7.67316538 2.88653492 -9.28384438 2.89630703 -10.89453125 2.90429688 C-12.44272274 2.91769832 -13.99090204 2.93261497 -15.5390625 2.94921875 C-16.24535797 2.95660568 -16.95165344 2.96399261 -17.67935181 2.97160339 C-21.68815295 3.04855523 -25.50138059 3.42565807 -29.4375 4.1875 C-23.09860101 -2.15139899 -8.27756809 -0.07751296 0 0 Z " fill="#A66355" transform="translate(124.4375,143.8125)"/>
<path d="M0 0 C0.33 0 0.66 0 1 0 C1.16755938 3.95075379 1.3281242 7.90172321 1.48217773 11.85302734 C1.56187238 13.85920071 1.64712518 15.86515076 1.73242188 17.87109375 C1.78076172 19.12792969 1.82910156 20.38476562 1.87890625 21.6796875 C1.94960327 23.42354736 1.94960327 23.42354736 2.02172852 25.20263672 C2 28 2 28 1 30 C1.66 30 2.32 30 3 30 C4.28317892 33.84953676 4.06643637 36.94738135 4 41 C4.66 41 5.32 41 6 41 C6.33 43.97 6.66 46.94 7 50 C5 49 5 49 3.74609375 45.39453125 C3.30179997 43.86952286 2.86597161 42.34202922 2.4375 40.8125 C2.21642578 40.05646484 1.99535156 39.30042969 1.76757812 38.52148438 C-0.58348044 30.33184532 -1.15683473 22.81767917 -1.125 14.3125 C-1.12886719 13.26771484 -1.13273437 12.22292969 -1.13671875 11.14648438 C-1.13542969 10.14552734 -1.13414063 9.14457031 -1.1328125 8.11328125 C-1.13168457 7.20360596 -1.13055664 6.29393066 -1.12939453 5.35668945 C-1 3 -1 3 0 0 Z " fill="#683936" transform="translate(95,280)"/>
<path d="M0 0 C0.66 0 1.32 0 2 0 C6.81084903 8.80335076 6.49917314 17.53887128 6.3125 27.25 C6.30098301 28.79165458 6.29120547 30.33332317 6.28320312 31.875 C6.26978635 33.35938989 6.25486539 34.84376712 6.23828125 36.328125 C6.23089432 37.00949524 6.22350739 37.69086548 6.21589661 38.3928833 C6.13751422 42.34994862 5.74787032 46.11423593 5 50 C4.67 50 4.34 50 4 50 C4 36.14 4 22.28 4 8 C3.34 8 2.68 8 2 8 C0.23537317 4.91190305 0 3.76687864 0 0 Z " fill="#593A3F" transform="translate(212,202)"/>
<path d="M0 0 C0 0.99 0 1.98 0 3 C-1.01835937 3.52722656 -2.03671875 4.05445313 -3.0859375 4.59765625 C-7.2409999 6.97421811 -10.33661109 9.99570539 -13.625 13.4375 C-14.1715625 13.99759766 -14.718125 14.55769531 -15.28125 15.13476562 C-16.35094423 16.23133016 -17.41779043 17.33068186 -18.48144531 18.43310547 C-20.62843929 20.64844427 -22.8125079 22.82470581 -25 25 C-24.01 21.535 -24.01 21.535 -23 18 C-22.34 18 -21.68 18 -21 18 C-20.731875 17.40832031 -20.46375 16.81664062 -20.1875 16.20703125 C-16.98881093 10.26209927 -6.96433127 0 0 0 Z " fill="#743E3A" transform="translate(131,225)"/>
<path d="M0 0 C3.86428195 0.77285639 7.30256981 1.71019877 11 3 C7.37900892 4.1141511 5.08844645 4 1 4 C1 18.52 1 33.04 1 48 C0.01 47.67 -0.98 47.34 -2 47 C-1.01 46.505 -1.01 46.505 0 46 C0 30.82 0 15.64 0 0 Z " fill="#82A35D" transform="translate(215,126)"/>
<path d="M0 0 C1.98 0.66 3.96 1.32 6 2 C5.34805664 2.3400708 4.69611328 2.6801416 4.02441406 3.03051758 C1.6566581 4.92867066 1.6566581 4.92867066 1.54589844 8.36987305 C1.54653007 9.75065026 1.56903503 11.13153079 1.609375 12.51171875 C1.61503479 13.23994339 1.62069458 13.96816803 1.62652588 14.71846008 C1.64889971 17.04214498 1.69909331 19.36428207 1.75 21.6875 C1.77006391 23.26364959 1.78831488 24.83982337 1.8046875 26.41601562 C1.84876717 30.27793924 1.91779775 34.1387073 2 38 C1.34 38 0.68 38 0 38 C0 25.46 0 12.92 0 0 Z " fill="#48445A" transform="translate(316,164)"/>
<path d="M0 0 C11.55 0 23.1 0 35 0 C28.93591416 3.03204292 23.26548921 3.18159209 16.625 3.1875 C15.90828125 3.19974609 15.1915625 3.21199219 14.453125 3.22460938 C9.32539573 3.23849312 4.93155272 2.40821991 0 1 C0 0.67 0 0.34 0 0 Z " fill="#8C85AA" transform="translate(231,356)"/>
<path d="M0 0 C0.33 0 0.66 0 1 0 C1 6.93 1 13.86 1 21 C-6.5 18.5 -6.5 18.5 -14 16 C-14 15.67 -14 15.34 -14 15 C-11.03 15 -8.06 15 -5 15 C-4.67 15.99 -4.34 16.98 -4 18 C-2.38228865 16.97437965 -2.38228865 16.97437965 -1 15 C-0.62355152 12.37060795 -0.39866913 9.94927528 -0.3125 7.3125 C-0.27833984 6.61060547 -0.24417969 5.90871094 -0.20898438 5.18554688 C-0.12670053 3.45758613 -0.0616676 1.72881928 0 0 Z " fill="#685F83" transform="translate(288,244)"/>
<path d="M0 0 C6.0213573 5.17836728 7.42923663 14.43738531 8 22 C8.66 22 9.32 22 10 22 C9.67 22.99 9.34 23.98 9 25 C8.34 25 7.68 25 7 25 C6.67 21.7 6.34 18.4 6 15 C5.34 15 4.68 15 4 15 C1.875 9.375 1.875 9.375 3 6 C2.01 5.67 1.02 5.34 0 5 C0 3.35 0 1.7 0 0 Z " fill="#5A566D" transform="translate(353,190)"/>
<path d="M0 0 C4.22657462 3.72933055 6.86006078 7.82036938 9.66796875 12.6953125 C10.71286279 14.50319369 11.84172038 16.26258057 13 18 C13.125 20.6875 13.125 20.6875 13 23 C9.35819088 18.93798213 6.97522893 14.42212218 4.46484375 9.62109375 C3.08614683 6.99661631 3.08614683 6.99661631 1.31640625 4.84765625 C0 3 0 3 0 0 Z " fill="#466138" transform="translate(218,67)"/>
<path d="M0 0 C1.66666667 1.66666667 3.33333333 3.33333333 5 5 C5.928125 5.886875 6.85625 6.77375 7.8125 7.6875 C10 10 10 10 10 12 C5.38 11.01 0.76 10.02 -4 9 C-4 8.67 -4 8.34 -4 8 C-2.02 7.67 -0.04 7.34 2 7 C1.34 4.69 0.68 2.38 0 0 Z " fill="#B8625F" transform="translate(115,353)"/>
<path d="M0 0 C0.33 0 0.66 0 1 0 C1 11.22 1 22.44 1 34 C0.01 33.67 -0.98 33.34 -2 33 C-2.33 32.01 -2.66 31.02 -3 30 C-2.34 29.34 -1.68 28.68 -1 28 C-0.62731113 25.08811755 -0.62731113 25.08811755 -0.5859375 21.6796875 C-0.54726562 20.42285156 -0.50859375 19.16601562 -0.46875 17.87109375 C-0.4378125 16.55238281 -0.406875 15.23367187 -0.375 13.875 C-0.33681971 12.53513082 -0.29776794 11.19528617 -0.2578125 9.85546875 C-0.1632797 6.57045381 -0.07772844 3.28544862 0 0 Z " fill="#A9CF7D" transform="translate(214,138)"/>
<path d="M0 0 C0.33 0.66 0.66 1.32 1 2 C1.66 2 2.32 2 3 2 C4.28317892 5.84953676 4.06643637 8.94738135 4 13 C4.66 13 5.32 13 6 13 C6.33 15.97 6.66 18.94 7 22 C5 21 5 21 3.7109375 17.32421875 C3.25744925 15.7810249 2.81250499 14.2353011 2.375 12.6875 C2.14554687 11.91470703 1.91609375 11.14191406 1.6796875 10.34570312 C0.61330845 6.65463516 0 3.90618236 0 0 Z " fill="#954E4C" transform="translate(95,308)"/>
<path d="M0 0 C0.33 0 0.66 0 1 0 C1.02899599 3.77081722 1.04679729 7.54160583 1.0625 11.3125 C1.07087891 12.38435547 1.07925781 13.45621094 1.08789062 14.56054688 C1.09111328 15.58857422 1.09433594 16.61660156 1.09765625 17.67578125 C1.10289307 18.62364502 1.10812988 19.57150879 1.11352539 20.5480957 C1 23 1 23 0 26 C-0.66 26 -1.32 26 -2 26 C-2.33 26.99 -2.66 27.98 -3 29 C-2.86722656 27.91203125 -2.73445313 26.8240625 -2.59765625 25.703125 C-1.56511678 17.14514896 -0.6296099 8.59914575 0 0 Z " fill="#6E6A87" transform="translate(315,287)"/>
<path d="M0 0 C7.39424962 -0.24647499 16.24883661 -0.3755817 23 3 C23 3.66 23 4.32 23 5 C22.01773437 4.80083984 22.01773437 4.80083984 21.015625 4.59765625 C14.02393949 3.24474535 7.10331788 2.47107518 0 2 C0 1.34 0 0.68 0 0 Z " fill="#524A68" transform="translate(254,254)"/>
<path d="M0 0 C2.125 0.375 2.125 0.375 4 1 C1.37595257 4.25194449 -1.57792685 5.09789401 -5.5 6.3125 C-6.6446875 6.67988281 -7.789375 7.04726563 -8.96875 7.42578125 C-12 8 -12 8 -15 6 C-14.08476562 5.73445313 -13.16953125 5.46890625 -12.2265625 5.1953125 C-11.03804688 4.84210938 -9.84953125 4.48890625 -8.625 4.125 C-7.44164062 3.77695312 -6.25828125 3.42890625 -5.0390625 3.0703125 C-1.93508442 2.22312581 -1.93508442 2.22312581 0 0 Z " fill="#4E4A5F" transform="translate(277,351)"/>
<path d="M0 0 C2.16478344 2.16478344 2.52492162 3.25473535 3.375 6.125 C4.82125131 10.70108748 6.76331619 14.75801347 9 19 C7.68 18.67 6.36 18.34 5 18 C5 16.68 5 15.36 5 14 C4.01 13.67 3.02 13.34 2 13 C1.26953125 11.07421875 1.26953125 11.07421875 0.8125 8.6875 C0.65394531 7.90761719 0.49539062 7.12773437 0.33203125 6.32421875 C0 4 0 4 0 0 Z " fill="#504B61" transform="translate(196,320)"/>
<path d="M0 0 C3.79675543 1.4723801 5.24624023 3.41927026 7.3125 6.875 C7.84488281 7.73867187 8.37726563 8.60234375 8.92578125 9.4921875 C10.1081058 12.25237791 10.08908636 13.26136178 9 16 C8.16151196 14.54462432 7.32936066 13.08559627 6.5 11.625 C6.0359375 10.81289062 5.571875 10.00078125 5.09375 9.1640625 C4 7 4 7 4 5 C3.34 5 2.68 5 2 5 C1.34 3.35 0.68 1.7 0 0 Z " fill="#4D6842" transform="translate(233,94)"/>
<path d="M0 0 C5.64913063 1.65707832 10.26300637 3.47762012 15 7 C13.359375 7.68359375 13.359375 7.68359375 11 8 C8.203125 6.78515625 8.203125 6.78515625 5.25 5.0625 C4.26515625 4.49660156 3.2803125 3.93070313 2.265625 3.34765625 C1.51796875 2.90292969 0.7703125 2.45820313 0 2 C0 1.34 0 0.68 0 0 Z " fill="#696081" transform="translate(323,166)"/>
<path d="M0 0 C0.66 0 1.32 0 2 0 C0.64923094 3.62369777 -0.98330615 6.82770556 -3 10.125 C-3.515625 10.97320312 -4.03125 11.82140625 -4.5625 12.6953125 C-5.67758809 14.4830896 -6.83123097 16.24684645 -8 18 C-8.56409532 13.16879654 -6.65255618 10.11002231 -4.125 6.1875 C-3.57779297 5.2912793 -3.57779297 5.2912793 -3.01953125 4.37695312 C-2.07626584 2.8763036 -1.04426955 1.43220101 0 0 Z " fill="#504E32" transform="translate(139,109)"/>
<path d="M0 0 C0.66 0 1.32 0 2 0 C5.06242216 4.84060277 6.53411505 8.29290936 7 14 C0 4.9 0 4.9 0 0 Z " fill="#4A663C" transform="translate(210,53)"/>
<path d="M0 0 C1.485 0.99 1.485 0.99 3 2 C3 2.66 3 3.32 3 4 C3.66 4 4.32 4 5 4 C6.27400375 5.47000433 7.5435008 6.94515781 8.7578125 8.46484375 C10.07336124 10.09066342 11.48213245 11.56202021 13 13 C12.67 13.66 12.34 14.32 12 15 C7.71 10.71 3.42 6.42 -1 2 C-0.67 1.34 -0.34 0.68 0 0 Z " fill="#865048" transform="translate(186,167)"/>
<path d="M0 0 C2.3125 0.5625 2.3125 0.5625 5 2 C6.6875 5.5625 6.6875 5.5625 8 9 C8.66 9.33 9.32 9.66 10 10 C10 11.65 10 13.3 10 15 C6.11091918 10.39071903 2.70037588 5.40075176 0 0 Z " fill="#59526E" transform="translate(347,142)"/>
<path d="M0 0 C0 0.66 0 1.32 0 2 C0.99 1.67 1.98 1.34 3 1 C3.99 1.66 4.98 2.32 6 3 C-0.28260706 3.23268915 -5.88019467 2.40454548 -12 1 C-7.61991557 -1.58464442 -4.88874887 -0.81479148 0 0 Z " fill="#815141" transform="translate(144,145)"/>
<path d="M0 0 C5.78461538 4.18461538 5.78461538 4.18461538 6.875 8.3125 C6.936875 9.6428125 6.936875 9.6428125 7 11 C7.66 11 8.32 11 9 11 C8.67 11.99 8.34 12.98 8 14 C8 13.34 8 12.68 8 12 C7.34 12 6.68 12 6 12 C4.4921875 9.8828125 4.4921875 9.8828125 2.875 7.125 C2.33617187 6.22007813 1.79734375 5.31515625 1.2421875 4.3828125 C0 2 0 2 0 0 Z " fill="#524F63" transform="translate(298,87)"/>
<path d="M0 0 C0.33 0.99 0.66 1.98 1 3 C-0.1446875 3.86625 -0.1446875 3.86625 -1.3125 4.75 C-3.66200917 6.71703093 -5.29323505 8.48476744 -7 11 C-8.32 10.67 -9.64 10.34 -11 10 C-5.555 5.05 -5.555 5.05 0 0 Z " fill="#5D5871" transform="translate(300,335)"/>
<path d="M0 0 C0 0.99 0 1.98 0 3 C-7.28571429 7.42857143 -7.28571429 7.42857143 -12 8 C-4.57142857 0 -4.57142857 0 0 0 Z " fill="#844541" transform="translate(131,225)"/>
<path d="M0 0 C3.98381075 2.16264012 6.88983545 4.71211176 10 8 C6.39426104 8 5.58663434 7.18292538 2.8125 5 C2.09707031 4.443125 1.38164062 3.88625 0.64453125 3.3125 C0.10183594 2.879375 -0.44085938 2.44625 -1 2 C-0.67 1.34 -0.34 0.68 0 0 Z " fill="#8B5848" transform="translate(175,159)"/>
<path d="M0 0 C1.98 0.66 3.96 1.32 6 2 C5.01 2.5259375 5.01 2.5259375 4 3.0625 C1.58896039 4.96557142 1.58896039 4.96557142 1.75 8.6875 C1.8325 9.780625 1.915 10.87375 2 12 C1.34 11.67 0.68 11.34 0 11 C0 7.37 0 3.74 0 0 Z " fill="#4E4861" transform="translate(316,164)"/>
<path d="M0 0 C1.75211782 0.25677589 3.50167936 0.53102953 5.25 0.8125 C6.22453125 0.96332031 7.1990625 1.11414063 8.203125 1.26953125 C11.12322338 2.03218264 12.74205815 3.03774101 15 5 C14.195625 4.855625 13.39125 4.71125 12.5625 4.5625 C8.38640519 3.90311661 4.20401941 3.43908647 0 3 C0 2.01 0 1.02 0 0 Z " fill="#88524C" transform="translate(96,356)"/>
<path d="M0 0 C4.71403788 0.47939368 8.66579301 0.96834048 13 3 C10.37684968 4.31157516 8.76966564 3.89649988 5.875 3.5625 C4.96492187 3.46066406 4.05484375 3.35882813 3.1171875 3.25390625 C2.41851562 3.17011719 1.71984375 3.08632812 1 3 C0.67 2.01 0.34 1.02 0 0 Z " fill="#834744" transform="translate(172,219)"/>
<path d="M0 0 C0.6875 1.625 0.6875 1.625 1 4 C-0.4375 7.25 -0.4375 7.25 -2 10 C-2.66 10 -3.32 10 -4 10 C-3.38461538 3.47692308 -3.38461538 3.47692308 -1.4375 1.0625 C-0.7259375 0.5365625 -0.7259375 0.5365625 0 0 Z " fill="#884843" transform="translate(23,215)"/>
<path d="M0 0 C4.59817352 1.45205479 4.59817352 1.45205479 6.375 3.875 C7.10378932 6.35288368 6.70324816 7.56411144 6 10 C4.99723227 8.52270825 3.99785546 7.04311423 3 5.5625 C2.443125 4.73878906 1.88625 3.91507813 1.3125 3.06640625 C0 1 0 1 0 0 Z " fill="#454E48" transform="translate(257,134)"/>
<path d="M0 0 C1.32 0.33 2.64 0.66 4 1 C3.875 2.875 3.875 2.875 3 5 C-0.0625 6.25 -0.0625 6.25 -3 7 C-2.690625 6.401875 -2.38125 5.80375 -2.0625 5.1875 C-0.89790296 2.91043228 -0.89790296 2.91043228 0 0 Z " fill="#8ABC6F" transform="translate(190,25)"/>
<path d="M0 0 C1.40318642 4.20955927 -0.11775477 6.09608396 -2 10 C-2.66 10.99 -3.32 11.98 -4 13 C-4.33 11.35 -4.66 9.7 -5 8 C-4.67 8 -4.34 8 -4 8 C-3.71125 7.05125 -3.4225 6.1025 -3.125 5.125 C-2 2 -2 2 0 0 Z " fill="#753E3C" transform="translate(28,200)"/>
<path d="M0 0 C7.06533193 2.04109589 7.06533193 2.04109589 9 5 C8.6875 7.1875 8.6875 7.1875 8 9 C7.236875 8.071875 6.47375 7.14375 5.6875 6.1875 C3.88151448 4.01723899 2.0523371 1.94431935 0 0 Z " fill="#A1C66D" transform="translate(202,159)"/>
<path d="M0 0 C0.33 0 0.66 0 1 0 C1.08159574 4.16138263 0.98248524 7.9472484 0 12 C-0.66 12 -1.32 12 -2 12 C-2.17835515 7.45194365 -1.99785435 4.1205746 0 0 Z " fill="#C0BAE0" transform="translate(363,200)"/>
<path d="M0 0 C2.31 0.66 4.62 1.32 7 2 C7 2.66 7 3.32 7 4 C1.25 4.125 1.25 4.125 -1 3 C-0.67 2.01 -0.34 1.02 0 0 Z " fill="#743F3D" transform="translate(88,352)"/>
<path d="M0 0 C1.14926266 0.95421808 2.29430541 1.91352045 3.4375 2.875 C4.07558594 3.40867187 4.71367188 3.94234375 5.37109375 4.4921875 C7 6 7 6 8 8 C6.35 7.67 4.7 7.34 3 7 C3 6.34 3 5.68 3 5 C2.01 4.67 1.02 4.34 0 4 C0 2.68 0 1.36 0 0 Z " fill="#6B3B39" transform="translate(51,325)"/>
<path d="M0 0 C3.73884332 2.65654657 5.64978174 4.58110387 7 9 C1.21538462 5.67692308 1.21538462 5.67692308 0.125 2.25 C0.08375 1.5075 0.0425 0.765 0 0 Z " fill="#75464C" transform="translate(204,237)"/>
<path d="M0 0 C0.99 0 1.98 0 3 0 C4.8125 2.25 4.8125 2.25 6 5 C5.1875 7.3125 5.1875 7.3125 4 9 C0 2.25 0 2.25 0 0 Z " fill="#4A5B49" transform="translate(252,125)"/>
<path d="M0 0 C0.33 0.66 0.66 1.32 1 2 C1.66 2 2.32 2 3 2 C3.33 4.64 3.66 7.28 4 10 C2 9 2 9 0.875 6.6875 C0 4 0 4 0 0 Z " fill="#7B4340" transform="translate(95,308)"/>
<path d="M0 0 C1.60080151 4.00200378 0.29279692 7.04556236 -1 11 C-1.66 10.34 -2.32 9.68 -3 9 C-2.79296875 7.08984375 -2.79296875 7.08984375 -2.1875 4.9375 C-1.99542969 4.22464844 -1.80335937 3.51179688 -1.60546875 2.77734375 C-1 1 -1 1 0 0 Z " fill="#6F3C37" transform="translate(100,260)"/>
<path d="M0 0 C4 2 4 2 5.3125 3.875 C6 6 6 6 5 10 C3.35 6.7 1.7 3.4 0 0 Z " fill="#643B37" transform="translate(206,192)"/>
<path d="M0 0 C2.3129482 2.3129482 2.49580975 3.47904875 3.125 6.625 C3.29257813 7.44226563 3.46015625 8.25953125 3.6328125 9.1015625 C3.81457031 10.04128906 3.81457031 10.04128906 4 11 C3.01 11 2.02 11 1 11 C0.67 7.37 0.34 3.74 0 0 Z " fill="#615D74" transform="translate(196,320)"/>
<path d="M0 0 C0.99 0 1.98 0 3 0 C3.99 2.31 4.98 4.62 6 7 C5.01 7 4.02 7 3 7 C0 2.77777778 0 2.77777778 0 0 Z " fill="#43583D" transform="translate(243,110)"/>
<path d="M0 0 C0 3.99904969 -1.72586967 5.80200422 -4 9 C-4 6.66666667 -4 4.33333333 -4 2 C-2.68 1.34 -1.36 0.68 0 0 Z " fill="#918AB2" transform="translate(306,326)"/>
<path d="M0 0 C1.70884005 1.62339805 3.37446717 3.29319053 5 5 C5 5.66 5 6.32 5 7 C4.01 7 3.02 7 2 7 C1.34 4.69 0.68 2.38 0 0 Z " fill="#D4716A" transform="translate(115,353)"/>
<path d="M0 0 C0 0.99 0 1.98 0 3 C-2.64 3.66 -5.28 4.32 -8 5 C-3.22727273 0 -3.22727273 0 0 0 Z " fill="#605B74" transform="translate(289,346)"/>
<path d="M0 0 C0.93423645 3.01031744 1.04449911 3.86650268 0 7 C-0.66 7 -1.32 7 -2 7 C-2.33 7.99 -2.66 8.98 -3 10 C-2.25 3.375 -2.25 3.375 0 0 Z " fill="#555268" transform="translate(315,306)"/>
<path d="M0 0 C0.99 0.33 1.98 0.66 3 1 C3 3.97 3 6.94 3 10 C1.19669467 6.39338934 0.53400897 3.91606575 0 0 Z " fill="#5F5874" transform="translate(360,163)"/>
<path d="M0 0 C6.625 0.75 6.625 0.75 10 3 C6.7 3 3.4 3 0 3 C0 2.01 0 1.02 0 0 Z " fill="#5E7E46" transform="translate(216,127)"/>
</svg>
